<?xml version="1.0" encoding="utf-8"?>
<!-- Generator: Adobe Illustrator 19.1.0, SVG Export Plug-In . SVG Version: 6.00 Build 0)  -->
<!DOCTYPE svg PUBLIC "-//W3C//DTD SVG 1.1//EN" "http://www.w3.org/Graphics/SVG/1.1/DTD/svg11.dtd">
<svg version="1.1" id="_x30_1_x5F_T37933_xA0_Image_1_"
	 xmlns="http://www.w3.org/2000/svg" xmlns:xlink="http://www.w3.org/1999/xlink" x="0px" y="0px" viewBox="0 0 379 314"
	 enable-background="new 0 0 379 314" xml:space="preserve">
<g>
	<g>
		<path fill-rule="evenodd" clip-rule="evenodd" fill="#36E3FF" d="M113.6,111.9c-0.6,0.2-1.3,0.2-1.9,0.4c-0.6,0.3-1.1,1-1.7,1.2
			c-0.5,0.2-1,0.1-1.4,0.3c-0.8,0.3-1.9,0.8-2.5,1.2c-0.8,0.5-1.6,1.2-2.4,1.7c-1.2,0.7-2.8,1.4-3.8,2.1c-1,0.8-1.9,1.8-3,2.5
			c-1,0.7-2.5,1.2-3.3,2c-0.6,0.6-1,1.5-1.7,2.2c-1.2,1.1-3,1.9-4.1,3c-0.9,1-1.5,2.3-2.5,3.4c-0.6,0.6-1.4,1-1.9,1.6
			c-0.5,0.6-0.7,1.5-1.2,2.1c-0.5,0.6-1.5,0.8-1.9,1.4c-0.6,0.7-0.8,1.7-1.4,2.6c-0.6,0.8-1,1.6-1.5,2.4c-0.7,1-1.7,1.6-2.3,2.5
			c-0.4,0.7-0.6,1.5-1,2.3c-0.9,1.4-2.1,2.4-2.9,3.9c-0.5,0.9-0.7,2.1-1.2,3.1c-0.4,0.9-1.4,1.6-1.8,2.5c-1.2,2.5-2,5.7-3,8.8
			c-0.9,2.5-3,6.8-2.4,8.5c0.3,0.9,1.7,1.4,2.5,2.2c1.1,1,2.1,2.4,3.6,3.5c1.3,1,2.5,2.2,3.9,3.3c1.1,0.9,2.4,2,3.9,3.3
			c1,0.9,3.3,2.7,3.4,3.5c0.2,1.5-1.1,2.6-2,4.2c-0.3,0.6-0.7,1.7-1,2.2c-0.5,0.8-1.6,1.3-2.2,2.3c-0.4,0.6-0.7,1.5-1.1,2.1
			c-0.7,1-1.8,1.6-2.3,2.5c-0.4,0.7-0.6,1.4-1,2c-0.3,0.6-0.8,1-1.2,1.6c-0.4,0.7-0.6,1.4-1,1.9c-0.6,0.7-1.5,1.2-2,1.8
			c-0.4,0.5-0.6,1.2-1,1.8c-0.9,1.4-2.2,2.4-2.5,3.5c-0.3,1.1,0.2,2.8,0.4,3.8c0.3,1.4,0.6,2.9,0.8,3.7c0.2,0.7,0.8,1.4,1,2.1
			c0.8,2.3,1.5,4.7,2.6,6.7c1.3,2.9,2.9,5.6,4.1,8.5c1.6,1.2,2.1,3.1,3.1,4.6c2.7,4.1,5.5,8.1,9,11.8c1.2,2.2,3.5,3.6,5.5,5.5
			c1.8,1.8,3.4,4,5.5,5.5c1,0.7,2.2,1.3,3.3,2c1.1,0.7,2,1.5,3.1,2.1c0.7,0.4,1.4,0.6,2,1c0.7,0.4,1.2,0.9,1.8,1.3
			c0.8,0.5,1.8,0.6,2.7,1.1c0.8,0.4,1.3,1.1,2.1,1.5c0.9,0.5,1.9,0.8,2.9,1.1c6,2.1,12.5,4.8,18.4,6.3c1.3,0.4,2.7,0.2,3.9,0.4
			c1.2,0.2,2.2,0.9,3.5,1.1c1.7,0.2,3.5,0.1,5.2,0.2c0.9,0.1,1.8,0.4,2.8,0.4c2.9,0.1,5.3,0.3,7.9,0.4c1.7,0,3.3-0.5,4.9-0.5
			c2-0.1,3.8-0.2,5.7-0.4c1.8-0.2,3.7-0.5,5.5-0.7c2.7-0.3,5.4-1.3,8-1.7c1-0.2,2-0.2,2.8-0.5c0.7-0.2,1.5-0.8,2.2-1.1
			c1.6-0.7,3.1-1.1,4.7-1.7c0.8-0.3,1.4-1,2.2-1.4c1.2-0.6,2.8-0.7,3.9-1.4c1.6-1.8,3.7-2.6,5.7-3.5c1.2-1.5,3.2-2.1,4.8-3.2
			c1.7-1.2,3.4-3,5-4.2c0.6-0.5,1.3-0.7,1.9-1.2c0.6-0.5,1-1.2,1.7-1.8c0.7-0.6,1.6-0.9,2.2-1.5c0.8-0.8,1.6-1.6,2.4-2.5
			c0.9-0.9,1.4-1.9,2.3-2.8c0.6-0.6,1.3-0.9,1.8-1.5c0.6-0.6,1-1.4,1.6-2c1.1-1.2,2.3-2.3,3.3-3.8c0.4-0.6,0.6-1.4,1.1-2
			c0.7-0.9,1.7-1.4,2.3-2.4c0.4-0.7,0.6-1.7,1.1-2.4c0.8-1.3,1.9-2.3,2.7-3.6c0.6-0.9,0.7-2.2,1.3-3.3c0.4-0.9,1.3-1.6,1.8-2.5
			c1-2,1.6-4.7,2.5-7.2c0.8-2.3,2-4.9,2.5-7.2c0.2-0.9-0.1-2.1,0.2-3.2c0.3-1.5,1.2-2.9,1.5-4.4c0.3-1.5-0.1-3.3,0.1-4.9
			c0.1-1,0.5-1.9,0.6-2.8c0.1-1-0.3-2.1-0.2-3.1c0.1-2,0.5-3.9,0.6-5.9c0-0.7-0.2-1.4-0.3-2.2c-0.1-0.8,0.2-1.7,0.1-2.5
			c-0.1-0.8-0.5-1.5-0.5-2.3c-0.1-1.4,0.3-2.9,0.1-4.2c-0.1-0.6-0.4-1.2-0.5-1.9c-0.1-0.7,0.1-1.3,0-2c-0.1-1-0.6-2-0.8-3
			c-0.4-2.2-0.9-4.1-1.4-6.2c-0.3-1.1-0.3-2.3-0.6-3.2c-0.3-1-0.9-1.9-1.2-2.9c-0.3-1.1-0.7-2.1-0.7-3.3c-0.7-1.6-1.9-3-2.5-4.7
			c-0.2-0.6-0.2-1.3-0.4-1.9c-0.3-0.7-0.7-1.3-1-1.9c-0.3-0.7-0.9-1.2-1.2-1.9c-0.3-0.7-0.4-1.4-0.7-2.1c-0.7-1.4-1.5-2.6-2.2-3.9
			c-0.8-1.5-1.6-2.5-2.5-3.9c-0.4-0.6-0.7-1.4-1.2-2c-0.7-1-1.9-1.8-2.7-2.9c-0.4-0.6-0.6-1.1-1-1.5c-2.3-2.5-4.9-4.9-7.6-7
			c-2.2-1.7-4.2-3.7-6.5-5.4c-1.7-1.3-3.8-2.5-5.6-3.6c-0.7-0.4-1.2-1-1.8-1.3c-0.7-0.4-1.6-0.4-2.4-0.8c-0.8-0.4-1.4-1.3-2.3-1.7
			c-1-0.5-2.1-0.6-3.1-1.1c-0.9-0.5-1.6-1.4-2.5-1.8c-2.6-1.3-5.8-2-8.7-3c-2.8-1-5.8-2.4-8.7-3c-0.8-0.2-1.9,0-2.7-0.1
			c-0.9-0.1-1.7-0.6-2.6-0.8c-1-0.2-2.1,0.1-3-0.1c-0.7-0.2-1.4-0.6-2.1-0.7c-1.4-0.3-3.1-0.2-4.7-0.3c-1.6-0.1-3.3-0.4-4.7-0.4
			c-1.4,0-2.9,0.3-4.3,0.4c-1.6,0-3.2-0.3-4.7-0.2c-2.6,0.2-5.7,0.8-8.2,1.3c-0.8,0.1-1.4,0.4-1.9,0.5c-0.3,0.1-0.5-0.1-0.8,0
			c-3.6,0.9-7,2.2-10.6,2.7c-0.8,0.7-1.9,0.9-2.7,1.4c-0.9,0.1-1.6,0.4-2.5,0.4C116.8,110.2,115.2,111.4,113.6,111.9z"/>
		<path fill-rule="evenodd" clip-rule="evenodd" fill="#FFFFFF" d="M198.5,228.7c-1.1,0.3-2,1-3.1,1.3c-1.1,0.3-2.2,0.5-3.4,0.7
			c-2.1,0.3-4,1.1-6,1.2c-1,0.1-1.9-0.2-3-0.1c-2.2,0.2-4.3,0.7-6.7,0.7c-3.5,0-7.1,0-10.8-0.4c-1.2-0.1-2.4,0-3.6-0.2
			c-0.6-0.1-1.2-0.4-1.9-0.5c-0.8-0.1-1.6,0.1-2.4-0.1c-0.5-0.1-1-0.4-1.5-0.5c-0.8-0.1-1.8,0.1-2.9-0.1c-1.9-0.4-3.5-1.5-5.9-2
			c-0.9-0.2-2.3,0-3-0.1c-1.8-0.4-7.5-3.5-9.2-2.3c-1.7,1.2-0.4,3.5,1.2,4.6c0.6,0.4,1.5,0.5,2.1,0.9c1.2,0.7,2.8,2.1,4,2.9
			c0.5,0.3,1.1,0.6,1.6,0.9c2.3,1.5,4.4,3.6,6.5,4.7c2,1,4.7,1.3,6.6,2.3c1,0.5,1.4,1.2,2.4,1.7c1.2,0.6,3.2,1.3,4.4,1.5
			c0.9,0.2,2-0.1,3,0.1c0.9,0.2,1.6,0.6,2.5,0.7c1.8,0.2,4.5-0.6,6.3-0.7c0.7,0,1.6,0.1,2.3,0c0.5-0.1,1.1-0.4,1.7-0.6
			c0.6-0.2,1.2-0.3,1.8-0.5c1.2-0.5,2.5-0.6,3.7-1c1-0.3,2.4-1.1,3.7-1.8c1.3-0.6,2.7-1.1,3.7-1.8c0.7-0.4,1.2-1.2,1.8-1.7
			c0.5-0.4,1.2-0.5,1.7-0.8c0.4-0.3,0.8-0.8,1.3-1.1c0.5-0.4,1.1-0.6,1.5-0.9c0.5-0.5,0.7-1.2,1.2-1.6c0.5-0.5,1.3-0.7,1.7-1.2
			c0.4-0.5,0.7-1.4,1.1-2c1-1.6,1.2-2.6-0.7-2.9C200.9,227.9,199.6,228.4,198.5,228.7z"/>
		<path fill-rule="evenodd" clip-rule="evenodd" fill="#FFFFFF" d="M194.2,150.5c-0.1-0.5,0-1.1-0.1-1.7c-0.1-0.5-0.4-1-0.5-1.6
			c-0.4-3.1,0.6-7-2.6-7.1c-1.3,0.9-0.9,2.4-1,3.6c-0.1,1.2-0.4,2.2-0.3,3.3c0.2,2.1,0.3,4.2,0.5,6.2c0.1,1.1-0.1,2.2,0,3.2
			c0.1,1.3,0.7,2.8,1,4c0.6,2.1,0.4,4.1,0.9,6.2c0.2,0.7,0.3,1.4,0.5,1.9c0.9,2.3,2.3,1.9,4.7,1.8c1.1-0.1,2.4-0.1,3.2-0.2
			c2.1-0.2,4.4-0.5,6.5-0.3c1.4,0.1,2.8,0.1,3.9,0.3c2,0.4,3.2,0.9,4.4,0.1c2-1.2,1.2-4.6,1-6.3c-0.5-0.8-0.9-1.4-1.3-2.5
			c-0.4-0.9-0.3-2.1-1.4-2.5c-1.4-0.5-3.2,1.3-5.2,1.9c-0.7,0.2-1.3,0.3-1.9,0.4c-2.4,0.1-4.7-1.6-6.3-2.6c-0.5-0.3-1.1-0.5-1.6-0.9
			c-0.6-0.5-0.8-1.3-1.3-1.8c-0.7-0.8-1.5-1.3-2.3-2.3C195.3,152.7,194.5,151.8,194.2,150.5z"/>
		<path fill-rule="evenodd" clip-rule="evenodd" fill="#FFFFFF" d="M155.6,168.3c0.3-1.1,0.9-2.2,1.2-3.4c0.1-0.7-0.1-1.6,0.1-2.4
			c0.2-1.1,0.6-2,0.6-2.7c-0.1-1-0.9-2.3-2-2.6c-1.3-0.4-3,1-4.2,1.4c-3,0.9-6.7,0.6-11.1-1.6c-0.9-0.4-1.4-1.1-2.3-1.9
			c-1.3-1.2-2.1-1.9-3-3.1c-0.4-0.5-1-1-1.2-1.3c-0.2-0.4-0.4-1.1-0.7-1.8c-0.3-0.7-0.8-1.3-0.9-1.7c-0.1-0.6,0.1-1.4,0-2.2
			c-0.1-0.8-0.5-1.4-0.4-2.4c0.1-0.8,0.6-1.5,0.6-2.5c0-0.7-0.8-3.1-1.3-3.5c-0.8-0.6-2.6-0.4-3.2,0.2c-1,0.9-2.2,4.9-2.6,6.7
			c-0.3,1.3,0,3.5-0.2,4.9c-0.2,2.4,0.1,3.4,0.3,5.8c0.1,0.8-0.1,1.5,0,2.3c0.1,0.8,0.5,2.1,0.8,3.2c0.3,1.1,0.4,2.4,0.8,3.3
			c0.2,0.7,0.7,1.2,0.9,1.8c0.2,0.7,0.2,1.5,0.4,2.2c0.2,0.6,0.8,1.1,0.9,1.7c0.5,1.5,0.4,3.6,2.1,4.2c1.1,0.4,3.6-0.1,5.2-0.4
			c1.7-0.2,3.4-0.7,5.1-0.8c0.8,0,1.7,0,2.5,0c0.8,0,1.7-0.2,2.5-0.2c0.8,0,1.8,0.3,2.4,0.3c1,0,2.1-0.3,3.2-0.3
			c1.1,0,2.2,0.2,3.2-0.4C155.6,170.3,155.4,169.4,155.6,168.3z"/>
		<g>
			<path fill-rule="evenodd" clip-rule="evenodd" fill="#231F20" d="M155.7,68.7c-1.4,1.4-1.6,4.3,0,5.1c0.9,0.4,1.7,0,2.8,0
				c2.1,0,3.6,0,5.7,0.1c1,0,2.2-0.1,3,0.3c1.8,0.8,2,3.3,1.7,4.3c-0.3,0.9-1.9,2.5-2.6,2.8c-1.3,0.5-3.7,1-5.2,1.2
				c-1.8,0.2-4.4-0.5-5.1,1.4c-1.2,3.5,4.9,2.2,6.6,2.5c0.7,0.1,1.5,0.6,2.2,0.7c1.2,0.3,2.5,0.1,3.7,0.4c1.3,0.3,2.5,0.1,3.6,0.3
				c1.2,0.2,2.2,0.9,3.3,1.1c1,0.2,2.2,0,3.2,0.2c2,0.4,4.2,1.5,6.4,2.2c2.3,0.8,4.6,1.4,6.4,2.2c0.9,0.4,1.6,1.3,2.4,1.7
				c0.9,0.5,2,0.6,2.9,1c0.6,0.3,1.2,0.9,1.7,1.2c1.4,0.9,2.5,1.4,3.7,2.2c1.3,0.8,2.4,1.4,3.6,2.1c2.7,1.8,5,3.6,7.5,5.5
				c2,1.5,3.6,2.9,5.2,4.5c0.8,0.8,1.7,1.3,2.5,2c1.5,1.3,2.6,3.1,3.9,4.5c1.4,1.5,2.8,3,4,4.6c0.6,0.8,1.1,1.6,1.7,2.4
				c0.7,0.8,1.5,1.4,2,2.2c0.6,0.8,0.9,1.9,1.5,2.8c0.4,0.6,1.1,1.1,1.5,1.8c0.6,0.8,1,2.1,1.6,3.1c0.2,0.3,0.5,0.6,0.7,0.9
				c0.3,0.5,0.2,1.3,0.5,1.8c0.3,0.7,1,1.3,1.3,2c0.8,1.5,1.6,2.5,1.7,4.4c1.3,2.1,2.2,4.7,3.1,7.3c0.3,0.8,0.9,1.5,1.1,2.3
				c0.3,1,0.5,2.3,0.7,3.4c0.3,1.1,0.7,2.2,0.9,3.2c0.2,0.8,0.2,1.6,0.3,2.4c0.4,2.1,1.4,4.1,1.6,6.1c0.1,0.8-0.1,1.6,0,2.3
				c0.1,0.9,0.6,3.2,1.2,4c0.8,1.1,2.3,1.6,3.5,2.7c0.4,0.4,0.7,1,1.1,1.5c1.2,1.3,3.4,2.6,4.4,4.1c0.5,0.8,0.8,1.9,1.4,2.9
				c0.7,1,1.8,2,2.2,2.9c0.3,1,0.6,3,0.4,4c-0.3,1.3-1.5,3.3-2.2,4.3c-0.5,0.6-0.9,1.2-1.3,1.7c-0.5,0.5-1.1,0.7-1.6,1.2
				c-0.5,0.5-0.8,1.2-1.2,1.6c-0.7,0.7-1.7,1.1-2.4,1.8c-0.5,0.5-0.9,1.2-1.3,1.7c-0.7,0.8-1.7,1.4-2.6,2.1c-0.3,0.2-0.7,0.3-1,0.6
				c-0.5,0.4-0.9,1.3-1.5,1.9c-0.6,0.6-1.4,0.9-1.8,1.4c-1.5,2.2-1.5,4.8-2.6,7.2c-0.4,0.9-1.3,1.6-1.8,2.6c-1.6,3.2-2,7.1-3.6,10.4
				c-0.9,1.8-2.4,3.1-3.4,4.9c-0.3,0.7-0.4,1.5-0.7,2.2c-0.3,0.6-0.8,1.2-1.3,1.8c-1.3,1.9-2.6,3.6-3.8,5.3
				c-0.8,1.1-1.9,2.1-2.7,3.1c-0.9,1.2-1.6,2.7-2.4,3.7c-0.4,0.5-1.1,0.8-1.6,1.2c-0.4,0.4-0.7,1.1-1.2,1.5
				c-0.5,0.5-1.2,0.7-1.7,1.2c-1.1,1.2-1.9,2.4-3.2,3.3c-1.2,0.9-2.2,1.9-3.4,2.9c-2.3,1.8-4.7,3.4-6.9,5.4
				c-1.3,0.4-2.4,1.3-3.5,2.4c-4.7,2-9.2,4.6-13.9,6.8c-0.9,0.4-2,0.6-2.9,1c-0.9,0.4-1.9,0.8-2.8,1.2c-1,0.4-2,0.4-3,0.7
				c-0.7,0.2-1.3,0.8-2,1c-2,0.6-4.3,0.7-6.5,1.3c-2.2,0.6-4.4,1.1-6.5,1.3c-0.8,0.1-1.6-0.2-2.4-0.1c-1,0.1-1.9,0.7-2.9,0.8
				c-1.2,0.1-2.7-0.1-4-0.1c-1.3,0-2.6,0.4-3.8,0.3c-0.9,0-1.7-0.4-2.8-0.4c-0.9,0-1.7-0.1-2.7-0.3c-1.7-0.3-3.5,0-5.1-0.2
				c-0.6-0.1-1.2-0.4-1.9-0.5c-1-0.2-2.1,0.1-3-0.1c-0.7-0.1-1.3-0.5-1.9-0.7c-0.9-0.2-1.9,0.1-2.9-0.1c-0.7-0.1-1.3-0.6-2-0.7
				c-0.7-0.2-1.6,0.1-2.4-0.1c-1.2-0.2-3-1-4.8-1.5c-1.6-0.4-3.3-0.6-4.6-1c-0.7-0.2-1.3-0.6-1.9-0.8c-0.8-0.3-1.6-0.2-2.2-0.5
				c-0.8-0.3-1.2-1-2-1.5c-2.2-1.3-5.1-1.5-7.2-2.6c-0.7-0.4-1.3-1.1-1.9-1.4c-0.6-0.3-1.4-0.4-2-0.7c-1.5-0.7-3.1-2.1-4.5-3.1
				c-1.5-1.1-3.2-2-4.7-2.9c-2.3-1.4-4.9-3.5-6.9-5.3c-1-0.9-2-2-2.9-2.9c-1-1-2.1-1.8-3.1-2.7c-0.6-0.6-1-1.2-1.5-1.9
				c-0.5-0.6-1.3-1.1-1.8-1.7c-0.6-0.5-0.9-1.3-1.5-1.9c-0.5-0.6-1.2-1.1-1.7-1.7c-2-2.5-3.6-5.2-5.8-7.5c-0.2-0.9-0.8-1.6-1.2-2.4
				c-0.4-0.8-0.6-1.7-1.1-2.4c-0.4-0.7-1.2-1.1-1.5-1.8c-0.2-0.4-0.2-1-0.4-1.5c-0.4-0.9-0.9-1.8-1.5-2.7c-0.7-1.2-0.7-2-1.2-3.5
				c-0.2-0.8-0.8-1.7-1.3-2.6c-0.8-1.6-1.4-3.5-2-5.3c-0.3-0.9-0.4-1.9-0.7-2.8c-0.2-0.6-0.7-1.4-1-2.4c-0.6-2.1-0.5-2.3-2.9-2.6
				c-0.7-0.1-1.4-0.3-1.9-0.3c-1.4,0-2.7,0.9-4.3,0.8c-3.3-0.3-5.1-2.3-6.6-4.1c-0.8-0.9-1.2-2-1.9-2.9c-0.6-0.8-1.7-1.5-2.5-2.4
				c-0.8-0.8-1.3-1.9-2-2.6c-0.9-0.8-1.9-1.3-2.6-2.2c-0.6-0.7-1-1.8-1.5-2.4c-0.9-1.1-1.9-1.7-2.8-2.9c-0.8-1-3-2.8-3.2-4
				c-0.1-1.2,0.9-3.9,1.5-5.2c0.8-1.5,2.3-3,3.3-4.8c0.5-1,0.7-2.2,1.2-3.3c0.5-0.9,1.1-1.7,1.7-2.6c0.5-0.8,1.3-1.5,1.7-2.3
				c0.3-0.7,0.4-1.6,0.8-2.3c0.4-0.8,1.3-1.4,1.7-2.2c1-2.1,1.1-3.3,2.7-3.9c0.4-0.2,1.3-0.2,1.9-0.4c0.8-0.2,1.5-0.5,1.8-0.5
				c0.5,0,1.4,0.4,2.3,0.4c0.9,0.1,1.9-0.4,2.9-0.4c1,0,2.1,0.2,3.1,0.2c1.7,0,4.8,0.3,5.8-0.5c1.4-1.2,2.7-6.7,3.5-9
				c1-3,1.9-6.6,3.2-9.3c0.3-0.7,1-1.2,1.4-1.9c0.3-0.6,0.5-1.4,0.8-2c0.4-0.7,1.1-1.2,1.4-1.8c0.4-0.8,0.6-1.7,1-2.5
				c0.4-0.7,1-1.2,1.4-1.9c0.4-0.7,0.5-1.5,0.9-2.1c0.6-1,1.6-1.4,2.2-2.3c0.4-0.6,0.6-1.3,1-1.9c0.5-0.7,1.4-1.3,2-2.1
				c1.2-1.5,2.3-3,3.7-4.4c0.7-0.7,1.2-1.7,1.8-2.3c0.5-0.6,1.4-0.8,1.9-1.4c0.5-0.6,0.9-1.3,1.4-1.8c1.5-1.5,3.5-2.7,5.1-4.1
				c1.1-1,2.2-1.9,3.4-2.9c0.6-0.5,1.3-0.8,1.9-1.2c0.6-0.5,1.1-1.1,1.8-1.5c3.1-1.9,6.4-4.7,10-5.6c0.9-0.7,1.5-1.5,2.6-1.9
				c0.8-0.3,1.6-0.3,2.4-0.6c0.7-0.3,1.2-0.9,1.9-1.2c1.1-0.4,2.1-0.6,3.2-1.2c1-0.5,2-0.9,2.9-1.5c2.4-0.4,4.7-1.2,7.2-1.7
				c0.8-0.2,1.5-0.6,2.3-0.7c0.8-0.2,1.7-0.1,2.5-0.3c0.8-0.2,1.5-0.6,2.3-0.7c2.2-0.4,4.5-0.4,7-0.8c0.9-0.1,2.1-0.3,3.5-0.3
				c1.2,0,2.9-0.1,3.1-1.2c0.1-0.9-1.8-1.7-3.5-2.1c-1.7-0.4-4.5,0-6.6-0.5c-0.9-0.2-1.9-0.7-2.5-1.2c-1-0.9-1.8-2.6-1.6-3.6
				c0.5-2.2,2.9-2.3,4.2-3.4c1.6-0.3,3.4-0.2,5.8-0.2c2.3,0,4.5-0.1,4.4-3.1c-0.1-2.9-3.1-1.9-6.1-2.1c-0.8-0.1-1.6-0.4-2.4-0.4
				c-1.6-0.1-2.9,0.1-4.1-1.3c-0.4-0.4-1.2-1.4-0.9-2.6c0.3-1.4,1.6-1.8,2.2-2.7c0.5-0.1,0.9-0.3,1.2-0.6c1.9-0.3,3.2-0.4,5.3-0.7
				c0.9-0.1,4.2-0.1,4.9-1.4c0.5-0.9-0.1-2.4-0.1-3.5c0-1,0.3-2.4,0.3-3.9c0-1.3-0.3-2.6-0.3-3.6c0-1.2,0.2-3.4,0.6-4.1
				c0.7-1.1,3-1.9,4.6-1.2c3.6,1.6,3.2,3.5,3.5,7.1c0.1,1.4,0.2,3.1,0.1,4.1c-0.1,0.8-0.4,1.5-0.4,2.2c0,1,0.6,2.9,1.2,3.2
				c0.9,0.6,2.6,0.2,3.9,0.2c1.5,0,3.1-0.2,4.7,0.5c2.3,1,4,3.5,1.9,6.1C163.2,69.4,158.9,68.3,155.7,68.7z M112.5,105.7
				c-0.5,0.2-1.2,0.1-1.8,0.4c-0.6,0.3-1.1,0.9-1.7,1.2c-0.4,0.2-0.9,0.1-1.4,0.3c-0.8,0.3-1.8,0.8-2.4,1.2
				c-0.8,0.5-1.6,1.2-2.3,1.6c-1.2,0.7-2.7,1.3-3.6,2.1c-1,0.7-1.8,1.7-2.9,2.4c-1,0.7-2.4,1.1-3.2,1.9c-0.6,0.6-0.9,1.5-1.6,2.1
				c-1.1,1.1-2.9,1.8-3.9,2.8c-0.9,0.9-1.5,2.2-2.4,3.2c-0.6,0.6-1.3,0.9-1.8,1.5c-0.5,0.6-0.7,1.4-1.2,2c-0.5,0.6-1.4,0.8-1.9,1.4
				c-0.6,0.7-0.8,1.7-1.4,2.5c-0.5,0.8-0.9,1.6-1.4,2.3c-0.7,1-1.6,1.5-2.2,2.4c-0.4,0.7-0.6,1.5-1,2.2c-0.8,1.4-2.1,2.3-2.8,3.7
				c-0.5,0.9-0.7,2-1.2,3c-0.4,0.9-1.3,1.6-1.7,2.4c-1.2,2.4-1.9,5.5-2.9,8.5c-0.8,2.4-2.9,6.6-2.3,8.2c0.3,0.8,1.7,1.4,2.4,2.1
				c1.1,1,2,2.3,3.4,3.3c1.3,1,2.4,2.1,3.7,3.2c1,0.8,2.3,2,3.7,3.2c1,0.9,3.1,2.6,3.3,3.4c0.2,1.4-1.1,2.5-1.9,4
				c-0.3,0.6-0.7,1.6-1,2.1c-0.5,0.8-1.5,1.3-2.1,2.2c-0.4,0.6-0.6,1.4-1.1,2c-0.7,0.9-1.7,1.5-2.2,2.4c-0.4,0.6-0.6,1.3-0.9,2
				c-0.3,0.6-0.8,1-1.2,1.5c-0.4,0.6-0.6,1.3-1,1.8c-0.6,0.7-1.4,1.1-1.9,1.8c-0.3,0.5-0.6,1.1-1,1.7c-0.9,1.3-2.1,2.3-2.4,3.4
				c-0.3,1.1,0.2,2.6,0.4,3.7c0.3,1.3,0.5,2.8,0.8,3.6c0.2,0.7,0.7,1.3,1,2c0.8,2.2,1.4,4.5,2.5,6.4c1.3,2.8,2.8,5.4,3.9,8.2
				c1.5,1.2,2,3,3,4.5c2.6,3.9,5.3,7.7,8.7,11.4c1.2,2.1,3.4,3.5,5.3,5.3c1.8,1.7,3.3,3.8,5.3,5.3c0.9,0.7,2.1,1.3,3.1,2
				c1,0.7,2,1.5,3,2c0.6,0.4,1.3,0.6,2,0.9c0.6,0.4,1.1,0.9,1.7,1.2c0.8,0.4,1.7,0.6,2.6,1c0.8,0.4,1.3,1.1,2,1.5
				c0.8,0.4,1.8,0.7,2.8,1.1c5.7,2,12.1,4.6,17.7,6.1c1.3,0.3,2.6,0.2,3.8,0.4c1.1,0.2,2.2,0.9,3.3,1c1.7,0.2,3.4,0.1,5,0.2
				c0.9,0.1,1.7,0.4,2.7,0.4c2.8,0.1,5.1,0.3,7.6,0.3c1.6,0,3.2-0.4,4.7-0.5c1.9-0.1,3.6-0.2,5.5-0.4c1.8-0.2,3.6-0.5,5.3-0.7
				c2.6-0.3,5.2-1.3,7.7-1.7c0.9-0.2,1.9-0.2,2.7-0.5c0.7-0.2,1.4-0.7,2.1-1c1.6-0.7,3-1.1,4.5-1.6c0.8-0.3,1.3-1,2.1-1.3
				c1.2-0.5,2.6-0.7,3.8-1.4c1.5-1.7,3.5-2.5,5.5-3.3c1.1-1.5,3.1-2,4.6-3.1c1.6-1.1,3.3-2.9,4.8-4.1c0.6-0.4,1.3-0.7,1.8-1.2
				c0.6-0.5,1-1.2,1.6-1.7c0.6-0.5,1.5-0.9,2.1-1.4c0.8-0.7,1.6-1.6,2.3-2.4c0.8-0.8,1.4-1.8,2.2-2.7c0.5-0.6,1.2-0.8,1.8-1.4
				c0.5-0.6,1-1.3,1.5-1.9c1.1-1.1,2.2-2.2,3.1-3.6c0.4-0.6,0.6-1.3,1-1.9c0.6-0.9,1.6-1.4,2.2-2.3c0.4-0.7,0.6-1.6,1-2.3
				c0.8-1.2,1.8-2.2,2.6-3.4c0.6-0.8,0.7-2.1,1.2-3.1c0.4-0.9,1.3-1.5,1.7-2.4c0.9-1.9,1.6-4.5,2.4-6.9c0.8-2.3,2-4.7,2.4-6.9
				c0.2-0.9-0.1-2,0.2-3.1c0.3-1.4,1.2-2.8,1.4-4.2c0.3-1.4-0.1-3.1,0.1-4.7c0.1-1,0.5-1.9,0.6-2.7c0.1-1-0.3-2-0.2-3
				c0.1-1.9,0.5-3.8,0.6-5.6c0-0.7-0.2-1.3-0.3-2.1c-0.1-0.8,0.1-1.6,0.1-2.4c-0.1-0.8-0.5-1.5-0.5-2.2c-0.1-1.4,0.2-2.8,0.1-4
				c-0.1-0.6-0.4-1.2-0.5-1.8c-0.1-0.6,0.1-1.3,0-1.9c-0.1-0.9-0.6-1.9-0.8-2.9c-0.4-2.1-0.9-4-1.4-5.9c-0.3-1.1-0.3-2.2-0.6-3.1
				c-0.3-1-0.9-1.8-1.2-2.8c-0.3-1-0.7-2-0.7-3.2c-0.7-1.5-1.8-2.9-2.4-4.5c-0.2-0.6-0.2-1.2-0.4-1.8c-0.3-0.6-0.7-1.2-1-1.9
				c-0.3-0.7-0.9-1.1-1.2-1.8c-0.3-0.7-0.4-1.3-0.7-2c-0.7-1.3-1.5-2.5-2.1-3.8c-0.8-1.4-1.5-2.4-2.4-3.7c-0.4-0.6-0.7-1.3-1.1-1.9
				c-0.7-1-1.8-1.7-2.6-2.8c-0.4-0.5-0.6-1-1-1.5c-2.2-2.4-4.7-4.7-7.3-6.7c-2.1-1.6-4-3.6-6.2-5.2c-1.7-1.2-3.6-2.4-5.4-3.5
				c-0.6-0.4-1.2-1-1.7-1.2c-0.7-0.3-1.6-0.4-2.3-0.8c-0.8-0.4-1.4-1.2-2.2-1.7c-1-0.5-2-0.6-2.9-1c-0.9-0.4-1.6-1.3-2.4-1.7
				c-2.5-1.2-5.6-1.9-8.4-2.9c-2.7-0.9-5.6-2.3-8.4-2.9c-0.8-0.2-1.8,0-2.6-0.1c-0.9-0.1-1.6-0.6-2.5-0.7c-1-0.2-2,0.1-2.9-0.1
				c-0.7-0.2-1.4-0.6-2-0.7c-1.3-0.3-3-0.2-4.5-0.3c-1.6-0.1-3.1-0.4-4.5-0.4c-1.4,0-2.8,0.3-4.2,0.3c-1.6,0-3.1-0.3-4.5-0.2
				c-2.5,0.2-5.4,0.8-7.9,1.2c-0.7,0.1-1.3,0.4-1.8,0.5c-0.2,0.1-0.5-0.1-0.8,0c-3.5,0.9-6.8,2.1-10.2,2.6c-0.8,0.7-1.8,0.8-2.6,1.4
				c-0.8,0.1-1.6,0.4-2.4,0.4C115.5,104,114,105.2,112.5,105.7z M250.1,188.8c0,0.9-0.3,1.8-0.6,2.7c-0.2,0.8,0,1.8-0.1,2.4
				c-0.2,1.6-1.6,3.8-0.1,4.4c2,0.8,3.8-3.4,4.9-5c0.3-0.4,1.1-0.8,1.2-1.4c0.2-0.9-0.7-2.3-1.4-3.3c-1-1.5-1.9-3.1-3.7-2.9
				C249.5,186.2,250.1,187.3,250.1,188.8z M49.4,166.6c-1.2,0-3.1-0.3-3.5,1.2c-0.2,1,1.5,2.2,2.4,3.1c1.1,1.2,2.5,2.1,3.2,2.8
				c1.8,1.6,3.3,3.6,5.2,5.1c0.7,0.6,1.4,1.3,2,1.6c1.7,0.8,3.4,0.2,5.2,0.1c1.4-0.1,3,0.3,3.4-1c0.5-1.7-2.1-2.8-3.7-4.3
				c-0.6-0.6-1.1-1.3-1.8-2c-0.7-0.6-1.7-1.2-2.4-1.8c-1.4-1.2-3.8-4.1-5.8-4.5C52.2,166.5,50.9,166.6,49.4,166.6z M34.7,173.9
				c-0.3,0.6-1.2,1.4-1.8,2.6c-0.9,1.8-1.2,4.3-2,5.9c-0.6,1.2-1.4,1.6-1.5,2.4c-0.1,1.2,2.2,2.7,3.2,3.9c0.4,0.5,0.7,1.3,1.2,1.9
				c1,1.1,2.4,2.1,3.2,3.1c0.4,0.5,0.6,1.1,0.9,1.5c0.3,0.4,1.2,0.8,1.7,1.3c1,1.1,1.6,2.8,3,3c1.8,0.2,2.7-2.3,3.9-4
				c0.5-0.7,1.7-1.4,2.2-2.3c0.3-0.5,0.4-1.3,0.8-2c0.3-0.5,0.9-1,1.3-1.7c0.3-0.5,0.4-1.3,0.8-2c0.5-0.9,1.1-1.4,1.2-2
				c0.1-0.9-1.6-2.4-3-3.8c-1.3-1.3-2.4-2.6-3.5-3.6c-0.7-0.6-2-1.3-2.6-1.9c-1-0.9-1.5-2.4-2.4-3.3c-0.5-0.5-1.4-0.9-2-1.5
				c-0.9-0.7-1.4-1.5-2.3-1.5C35.5,169.9,35.5,172.3,34.7,173.9z"/>
			<path fill-rule="evenodd" clip-rule="evenodd" fill="#231F20" d="M216.4,136.7c0.8,2.9,2.3,5.4,2.8,8.5c0.4,1.2,1.4,2.3,1.8,3.5
				c0.2,0.7,0.1,1.5,0.4,2.3c0.3,1,1.1,1.9,1.4,2.9c0.3,1,0.3,2.1,0.5,3.1c0.4,1.9,1.2,3.8,1.5,5.7c0.3,2,0.9,3.8,1.2,5.7
				c0.4,1.7,3.1,2.7,3.5,4.6c0.2,1.2-0.7,4-1.8,4.6c-0.5,0.3-1.5,0-2.6-0.1c-0.9-0.1-1.9,0-2.6-0.1c-1.7-0.4-3.4-1.4-5-1.7
				c-0.8-0.2-1.6,0-2.5-0.1c-0.6-0.1-1.2-0.4-1.9-0.5c-0.7-0.1-1.5,0.1-2.3,0c-0.7-0.1-1.4-0.5-2.1-0.6c-0.7-0.1-1.5,0.1-2.2,0
				c-0.6-0.1-1.1-0.4-1.7-0.5c-2.2-0.3-4.5-0.3-6.5-0.2c-0.9,0.1-1.7,0-2.5,0c-1.8,0.1-3.5,0.8-5.2,1c-0.8,0.1-1.5-0.1-2.3,0
				c-1.4,0.1-2.8,0.9-4.3,1.1c-0.8,0.1-2.6,0.2-3.8-0.3c-2.5-1-2.7-4-0.6-5.4c0.5-0.3,1.2-0.9,1.8-1c1.3-0.4,2.5-0.2,3.2-1.1
				c1-1.2,1-3.5,0.7-4.7c-0.1-0.5-0.5-1-0.6-1.6c-0.1-0.6,0.1-1.2,0-1.8c-0.2-1-0.9-1.8-1-2.6c-0.1-0.6,0.1-1.4,0-2.3
				c-0.1-1.4-0.7-3-0.9-4.8c-0.1-1.6,0.1-3.4,0-5.1c-0.1-0.8-0.5-1.6-0.6-2.4c-0.1-1.3,0.1-2.8,0.2-4.1c0-3.1,0-5.3,1.7-8.9
				c0.4-0.8,0.9-1.7,1.4-2.6c1-1.9,1.4-2.5,2.9-3.6c1.2-0.9,2.5-1.9,3.9-2.4c1.6-0.5,3.6-0.3,5.4-0.2c2.4,0.2,5.6,1.9,7.4,2.9
				c2.2,1.2,3.5,2.1,4.9,3.7c0.6,0.7,1,1.5,1.5,2.2c0.8,0.9,1.7,1.6,2.2,2.4C214.6,133.8,214.7,135.3,216.4,136.7z M193.9,146.8
				c-0.1-0.5,0-1.1-0.1-1.7c-0.1-0.5-0.4-1-0.5-1.6c-0.4-3.1,0.6-7-2.6-7.1c-1.3,0.9-0.9,2.4-1,3.6c-0.1,1.2-0.4,2.2-0.3,3.3
				c0.2,2.1,0.3,4.2,0.5,6.2c0.1,1.1-0.1,2.2,0,3.2c0.1,1.3,0.7,2.8,1,4c0.6,2.1,0.4,4.1,0.9,6.2c0.2,0.7,0.3,1.4,0.5,1.9
				c0.9,2.3,2.3,1.9,4.7,1.8c1.1-0.1,2.4-0.1,3.2-0.2c2.1-0.2,4.4-0.5,6.5-0.3c1.4,0.1,2.8,0.1,3.9,0.3c2,0.4,3.2,0.9,4.4,0.1
				c2-1.2,1.2-4.6,1-6.3c-0.5-0.8-0.9-1.4-1.3-2.5c-0.4-0.9-0.3-2.1-1.4-2.5c-1.4-0.5-3.2,1.3-5.2,1.9c-0.7,0.2-1.3,0.3-1.9,0.4
				c-2.4,0.1-4.7-1.6-6.3-2.6c-0.5-0.3-1.1-0.5-1.6-0.9c-0.6-0.5-0.8-1.3-1.3-1.8c-0.7-0.8-1.5-1.3-2.3-2.3
				C195,148.9,194.2,148,193.9,146.8z"/>
			<path fill-rule="evenodd" clip-rule="evenodd" fill="#231F20" d="M161.6,137c0.5,2.1,0.9,4.4,1.4,6.6c0.5,2.1,1.1,4.4,1.1,6.6
				c0,0.9-0.3,1.9-0.3,2.8c0,0.8,0.6,1.6,0.6,2.4c0,0.7-0.3,1.5-0.4,2.2c-0.1,1.1,0.4,2.2,0.3,3.2c-0.1,0.6-0.4,1.5-0.6,2.3
				c-0.1,0.8,0,1.8-0.1,2.4c-0.2,1.4-0.8,2.1-0.4,3c0.5,1,1.6,0.9,2.6,1.9c0.9,0.9,1.6,2.7,0.4,4.3c-1.1,1.6-3.4,1.4-5.7,1.6
				c-0.9,0.1-1.6,0.5-2.3,0.5c-0.4,0-1.3-0.2-1.9-0.3c-1-0.1-2,0.3-3,0.3c-1.5,0-3.1-0.2-4.8-0.1c-1.5,0.1-3,0.2-4.5,0.2
				c-1.5,0-3,0-4.5,0.2c-1.5,0.2-3.1,0.1-4.5,0.2c-1.1,0.1-2.2,0.6-3.3,0.8c-1.1,0.2-2.3,0.3-3.5,0.5c-2.3,0.4-4.6,1.6-6.7,1.8
				c-2.7,0.2-6.8-0.1-6.3-3.2c0.2-1.5,1.5-2.9,2.7-3.7c1.2-0.8,3-1,3.4-2.2c0.4-1.2-1.3-3.5-1.8-5.1c-0.6-1.8-1.5-3.5-1.8-5.1
				c-0.1-0.8,0.1-1.8,0-2.7c-0.1-1.1-0.6-2.1-0.7-3c-0.2-1.5,0.2-3.3,0.3-5c0-0.8-0.3-1.6-0.3-2.4c-0.1-0.9,0.1-1.7,0.1-2.5
				c-0.1-1.2-0.4-2.3-0.3-3.3c0.2-1,0.8-2,1-2.9c0.2-1,0-2.1,0.1-3c0.4-1.8,1.2-4.1,2-5.8c0.4-0.7,1.1-1.3,1.5-2
				c0.4-0.7,0.6-1.6,1-2.2c0.4-0.6,1.1-1.1,1.7-1.7c1.2-1.2,2.2-2.2,3.5-3.2c1.4-1,2.5-2,4-2.5c3.1-1,7-0.6,10.9-0.2
				c0.8,0.1,2.8,0.7,3.8,1.2c0.8,0.4,1.4,1,2.1,1.5c0.6,0.3,1.3,0.5,1.9,0.8c0.8,0.4,2.5,1.8,3.3,2.5c0.7,0.7,1.1,1.7,1.8,2.5
				c0.8,0.9,1.6,1.6,2.2,2.4C159.5,131.9,160.1,134.7,161.6,137z M155.3,164.5c0.3-1.1,0.9-2.2,1.2-3.4c0.1-0.7-0.1-1.6,0.1-2.4
				c0.2-1.1,0.6-2,0.6-2.7c-0.1-1-0.9-2.3-2-2.6c-1.3-0.4-3,1-4.2,1.4c-3,0.9-6.7,0.6-11.1-1.6c-0.9-0.4-1.4-1.1-2.3-1.9
				c-1.3-1.2-2.1-1.9-3-3.1c-0.4-0.5-1-1-1.2-1.3c-0.2-0.4-0.4-1.1-0.7-1.8c-0.3-0.7-0.8-1.3-0.9-1.7c-0.1-0.6,0.1-1.4,0-2.2
				c-0.1-0.8-0.5-1.4-0.4-2.4c0.1-0.8,0.6-1.5,0.6-2.5c0-0.7-0.8-3.1-1.3-3.5c-0.8-0.6-2.6-0.4-3.2,0.2c-1,0.9-2.2,4.9-2.6,6.7
				c-0.3,1.3,0,3.5-0.2,4.9c-0.2,2.4,0.1,3.4,0.3,5.8c0.1,0.8-0.1,1.5,0,2.3c0.1,0.8,0.5,2.1,0.8,3.2c0.3,1.1,0.4,2.4,0.8,3.3
				c0.2,0.7,0.7,1.2,0.9,1.8c0.2,0.7,0.2,1.5,0.4,2.2c0.2,0.6,0.8,1.1,0.9,1.7c0.5,1.5,0.4,3.6,2.1,4.2c1.1,0.4,3.6-0.1,5.2-0.4
				c1.7-0.2,3.4-0.7,5.1-0.8c0.8,0,1.7,0,2.5,0c0.8,0,1.7-0.2,2.5-0.2c0.8,0,1.8,0.3,2.4,0.3c1,0,2.1-0.3,3.2-0.3
				c1.1,0,2.2,0.2,3.2-0.4C155.3,166.5,155.1,165.6,155.3,164.5z"/>
			<path fill-rule="evenodd" clip-rule="evenodd" fill="#231F20" d="M193.3,191.3c-0.1,1.3,0.8,2.4,0.9,3.7c0.1,0.9-0.1,2.1-0.1,3.1
				c0,2.1-0.1,4.7-1.7,7.2c-0.3,0.4-0.8,0.6-1.4,1.2c-0.5,0.4-0.8,1.1-1.3,1.5c-0.4,0.3-1,0.4-1.5,0.7c-1.6,1-1.4,1.1-3.5,1.3
				c-0.7,0.1-1.5,0.3-2,0.3c-0.7,0-1.4-0.4-2.3-0.4c-1.5-0.1-3.1,0.3-4.8,0.3c-0.8,0-1.7-0.1-2.5-0.1c-0.7,0-1.4,0.3-2.2,0.4
				c-0.9,0.1-2-0.1-3-0.1c-1.7,0-3.2-0.1-5.1-0.2c-0.8-0.1-1.6,0-2.2-0.1c-4.8-1.1-6.3-4-7.6-6.8c-0.5-2.7-1-6.2,1.1-9.4
				c0.3-0.5,0.9-0.8,1.6-1.2c0.6-0.4,1-1.1,1.5-1.4c0.5-0.4,1.2-0.6,1.9-1c0.6-0.4,1.2-0.7,1.9-1c0.6-0.3,1.1-0.9,1.7-1.3
				c0.6-0.4,1.3-0.6,1.9-0.9c2.7-1.3,5.3-2.6,7.5-3.8c1.4,0.1,2.8-0.9,4.3-1.3c0.7-0.2,2-0.3,3.1-0.5c2.2-0.3,4.3-0.8,7.1,1.1
				c0.9,0.6,1.5,1.9,2.4,2.9C190.9,187.4,192.4,189,193.3,191.3z M179.1,189.5c-1.4,1.7-1.3,4.7-1.1,6.2c0.2,1.7,0.8,4,1.8,5
				c1,0.9,3.4,1.7,4.5,1.6c1.5-0.3,2.8-2.8,3.2-5c0.5-2.3-0.2-4.4-1.1-6c-0.9-1.6-2.4-2.5-4.4-2.8
				C181,188.7,179.7,188.7,179.1,189.5z M166.1,193.8c-1.5,1-3.3,1.4-3.9,2.6c-0.6,1.2-0.4,4.1,0,4.9c0.3,0.9,1.8,2.8,2.6,3.1
				c0.5,0.2,1.4,0,2.2,0.1c1.9,0.2,5,0.9,5.7-0.4c0.8-1.5-0.7-2.5-1.3-3.6c-0.5-0.9-1-1.9-1.1-2.7c-0.4-2,0.5-3.4,0-5.5
				C168.2,191,167.4,192.8,166.1,193.8z"/>
			<path fill-rule="evenodd" clip-rule="evenodd" fill="#231F20" d="M191.2,245.2c-1.1,0.6-2.4,0.9-3.5,1.6
				c-0.9,0.6-1.7,1.6-2.8,2.1c-0.6,0.3-1.6,0.3-2.5,0.5c-0.7,0.2-1.2,0.7-1.8,0.9c-0.6,0.2-1.3,0.1-2,0.3c-1.6,0.4-4.1,1.4-5.6,1.5
				c-2.8,0.2-6.6-0.1-9.9-0.5c-1.1-0.1-2.2-0.1-3.2-0.2c-1.1-0.2-2.1-0.8-3.3-1c-0.8-0.1-1.7,0-2.6-0.1c-1.9-0.4-4.3-1.5-6.6-2.3
				c-2.4-0.8-4.9-1.4-6.6-2.3c-0.7-0.4-1.3-1.1-2-1.5c-1-0.6-2.3-0.7-3.3-1.2c-1.3-0.7-2.3-1.9-3.5-2.7c-0.6-0.4-1.3-0.6-1.8-1
				c-0.5-0.4-0.8-1.2-1.4-1.8c-0.5-0.4-1.3-0.7-1.8-1.3c-1.3-1.2-2.2-2.7-3.4-3.3c-0.8-0.4-1.5-0.6-2.1-0.6c-1,0-2.8,1.7-3.6,3.1
				c-0.6,1-0.8,2.4-1.5,3.3c-0.6,0.7-2.9,1.9-4.1,1.5c-0.8-0.3-1.9-1.8-1.9-2.9c0-0.8,0.9-2.4,1.3-4.1c0.2-1.1,0-1.9,0.2-2.5
				c0.4-1.3,1.5-1.9,1.9-3.7c0.2-1,0-2,0.2-3.1c0.3-1.6,1.1-3.5,1.8-5.1c0.2-0.5,0.7-1,0.9-1.6c0.2-0.6,0.2-1.4,0.4-2
				c0.3-0.8,1.2-1.5,1.5-2.3c0.8-1.6,1-3.7,1.8-5.2c1.2-2.2,4.1-3.7,6-3.1c1,0.3,2.9,1.5,3.5,2.2c1.5,1.6,1.3,3.8,2.2,5.7
				c0.1,0.2,0.4,0.3,0.6,0.6c0.5,0.9,1.2,2.2,2.6,2.9c0.9,0.4,2,0.8,3.1,1.1c1,0.2,1.7-0.1,2.9,0.1c1.3,0.3,2.9,1.2,4.4,1.5
				c0.7,0.1,1.5-0.1,2.3,0c0.8,0.1,1.5,0.5,2.3,0.6c1.3,0.1,2.7-0.1,4.1,0c1.5,0.1,3,0.3,4.4,0.5c1.4,0.2,2.9,0.3,4.3,0.5
				c1.7,0.2,3.5-0.1,5.3-0.2c1.8-0.1,3.7,0.2,5.3,0.1c2.3-0.2,4.7-0.7,7-1c2.4-0.3,4.8-0.4,7-0.9c1.2-0.3,2.2-0.5,3.4-0.7
				c1.1-0.2,2.1-0.7,3.2-0.9c1.8-0.4,3.8-0.4,5.6-1.1c0.4-0.2,0.8-0.5,1.3-0.7c1.4-0.6,2.2-1,3.8-1.9c1-0.5,1.9-1.4,2.1-2
				c0.5-1.3,0-4.5,1.6-6.2c1.7-1.7,4.8,0.3,6.4,2c0.8,0.9,1.6,3.3,2.2,4.8c0.2,0.5,0.6,1,0.7,1.5c0.2,0.5,0.2,1.2,0.4,1.9
				c0.4,1.3,0.8,3.1,0.5,4.9c-0.1,0.6-0.4,1.2-0.5,1.9c-0.1,0.9,0,1.9-0.1,2.6c-0.7,3.3-2.3,6.4-3.8,8.3c-0.4,0.5-1.2,1.7-2,1.8
				c-2.7,0.5-3.7-2.2-3.3-3.8c0.3-1.2,2.1-2.8,1.1-3.7c-0.9-0.9-2.2,0.3-3,1.3c-0.9,1.1-1.6,2.5-2.2,3.3c-0.5,0.8-1.5,1.3-2.1,2.1
				c-0.5,0.7-0.8,1.5-1.2,2.1c-0.7,0.9-1.8,1.3-2.6,2.1c-0.6,0.6-0.9,1.5-1.5,2.1C195.7,242.3,193.2,243.4,191.2,245.2z
				 M193.8,225.5c-1.1,0.3-2,1-3.1,1.3c-1.1,0.3-2.2,0.5-3.4,0.7c-2.1,0.3-4,1.1-6,1.2c-1,0.1-1.9-0.2-3-0.1
				c-2.2,0.2-4.3,0.7-6.7,0.7c-3.5,0-7.1,0-10.8-0.4c-1.2-0.1-2.4,0-3.6-0.2c-0.6-0.1-1.2-0.4-1.9-0.5c-0.8-0.1-1.6,0.1-2.4-0.1
				c-0.5-0.1-1-0.4-1.5-0.5c-0.8-0.1-1.8,0.1-2.9-0.1c-1.9-0.4-3.5-1.5-5.9-2c-0.9-0.2-2.3,0-3-0.1c-1.8-0.4-7.5-3.5-9.2-2.3
				c-1.7,1.2-0.4,3.5,1.2,4.6c0.6,0.4,1.5,0.5,2.1,0.9c1.2,0.7,2.8,2.1,4,2.9c0.5,0.3,1.1,0.6,1.6,0.9c2.3,1.5,4.4,3.6,6.5,4.7
				c2,1,4.7,1.3,6.6,2.3c1,0.5,1.4,1.2,2.4,1.7c1.2,0.6,3.2,1.3,4.4,1.5c0.9,0.2,2-0.1,3,0.1c0.9,0.2,1.6,0.6,2.5,0.7
				c1.8,0.2,4.5-0.6,6.3-0.7c0.7,0,1.6,0.1,2.3,0c0.5-0.1,1.1-0.4,1.7-0.6c0.6-0.2,1.2-0.3,1.8-0.5c1.2-0.5,2.5-0.6,3.7-1
				c1-0.3,2.4-1.1,3.7-1.8c1.3-0.6,2.7-1.1,3.7-1.8c0.7-0.4,1.2-1.2,1.8-1.7c0.5-0.4,1.2-0.5,1.7-0.8c0.4-0.3,0.8-0.8,1.3-1.1
				c0.5-0.4,1.1-0.6,1.5-0.9c0.5-0.5,0.7-1.2,1.2-1.6c0.5-0.5,1.3-0.7,1.7-1.2c0.4-0.5,0.7-1.4,1.1-2c1-1.6,1.2-2.6-0.7-2.9
				C196.2,224.7,194.9,225.2,193.8,225.5z"/>
			<path fill-rule="evenodd" clip-rule="evenodd" fill="#231F20" d="M44.1,182.7c-0.1,1.6,1.3,3.1,0.3,4.9c-0.5,1-2.6,1.9-3.5,1.7
				c-1.7-0.3-2.6-1.5-3.4-2.4c-1-1.2-2.1-3.1-1.1-4.9c0.3-0.6,2.4-2.2,3.2-2.2C41.7,179.7,43,181.4,44.1,182.7z"/>
			<path fill-rule="evenodd" clip-rule="evenodd" fill="#231F20" d="M177.1,261.2c-1.1,0.5-2.6,0.8-4.2,1.2c-1.1,0.3-2.3,0.7-3.4,1
				c-2.2,0.5-5.1,0.4-7.4,0.6c-1.2,0.1-2.9,0.1-3.8,0c-0.7-0.1-1.4-0.6-2.2-0.7c-1.5-0.3-2.5,0.2-4.2-0.6c-1.6-0.7-3.2-2.4-4.2-3.7
				c-0.4-0.5-1-1-1.2-1.4c-0.4-0.9-0.7-3.4,0.3-4.5c0.8-1,2.9-0.8,4.4-0.1c1.7,0.7,2.5,2,4.9,2.6c0.8,0.2,1.6,0,2.5,0.1
				c0.8,0.1,1.5,0.3,2.2,0.4c0.9,0,1.8-0.3,2.8-0.3c1.9,0,3.8,0.5,5.6,0.4c1.2-0.1,2.3-0.5,3.5-0.6c0.8-0.1,1.7,0.2,2.4,0.1
				c0.6-0.1,1.4-0.7,2.3-0.5c1.5,0.4,2.2,2.2,1.8,3.7C178.8,259.9,177.8,260.5,177.1,261.2z"/>
		</g>
		<path fill-rule="evenodd" clip-rule="evenodd" fill="#36E3FF" d="M122,58c0,0.1,0,0.2-0.1,0.3c-0.1,0.1-0.2,0.3-0.3,0.4
			c-0.1,0.1-0.1,0.3-0.1,0.5c0,0.1-0.1,0.2-0.1,0.3c0,0.1,0,0.2-0.1,0.3c-0.1,0.2-0.2,0.4-0.2,0.6c0,0.1,0,0.1,0,0.2
			c0,0.1-0.1,0.2-0.1,0.3c0,0.1,0,0.2,0,0.3c0,0.2-0.1,0.3-0.1,0.4c0,0.1,0,0.1,0,0.2c0,0.1,0,0.1-0.1,0.2c0,0.1,0,0.2,0,0.3
			c0,0.2,0,0.5,0,0.7c0,0.1,0,0.2,0,0.4c0,0.1,0,0.2,0.1,0.3c0,0.1,0,0.2,0,0.4c0,0.2,0.1,0.4,0.1,0.6c0,0.1,0,0.1,0,0.2
			c0,0.1,0,0.2,0.1,0.2c0,0.1,0.1,0.1,0.1,0.2c0,0.1,0,0.2,0,0.2c0,0.2,0.1,0.3,0.1,0.5c0,0.2,0.1,0.3,0.2,0.5c0,0.1,0,0.2,0.1,0.2
			c0.1,0.1,0.2,0.2,0.2,0.4c0,0.1,0,0.1,0.1,0.2c0.2,0.3,0.4,0.6,0.6,0.9c0.2,0.2,0.3,0.5,0.5,0.7c0.2,0.2,0.3,0.4,0.5,0.5
			c0.1,0.1,0.1,0.1,0.2,0.2c0.1,0.1,0.2,0.1,0.2,0.1c0.1,0.1,0.1,0.2,0.2,0.2c0.1,0.1,0.2,0.1,0.3,0.2c0.1,0.1,0.1,0.2,0.2,0.3
			c0.2,0.2,0.6,0.4,0.8,0.5c0.3,0.2,0.6,0.4,0.8,0.5c0.1,0,0.2,0,0.3,0.1c0.1,0,0.2,0.1,0.3,0.1c0.1,0,0.2,0,0.3,0.1
			c0.1,0,0.1,0.1,0.2,0.1c0.1,0.1,0.3,0.1,0.5,0.1c0.2,0.1,0.3,0.1,0.5,0.2c0.2,0,0.3,0,0.5,0.1c0.2,0,0.3,0.1,0.5,0.1
			c0.3,0,0.6,0.1,0.9,0.1c0.1,0,0.2,0,0.2,0c0,0,0.1,0,0.1,0c0.4,0,0.8-0.1,1.2,0c0.1-0.1,0.2,0,0.3-0.1c0.1,0,0.2,0,0.3,0
			c0.2,0,0.4-0.1,0.6-0.1c0.1,0,0.1,0,0.2,0c0.1,0,0.1-0.1,0.2-0.1c0.1,0,0.1,0,0.2,0c0.1,0,0.2,0,0.3-0.1c0.1,0,0.2-0.1,0.3-0.1
			c0.1,0,0.3-0.1,0.4-0.1c0.1-0.1,0.2-0.1,0.4-0.2c0.1,0,0.3-0.1,0.4-0.1c0.1,0,0.1-0.1,0.2-0.2c0.1-0.1,0.4-0.1,0.5-0.2
			c0.1-0.1,0.2-0.2,0.3-0.3c0.1-0.1,0.2-0.1,0.2-0.1c0.1,0,0.1-0.1,0.2-0.2c0.1-0.1,0.2-0.1,0.2-0.1c0.1-0.1,0.1-0.2,0.2-0.2
			c0.1-0.1,0.1-0.1,0.2-0.2c0.1-0.1,0.2-0.1,0.3-0.2c0.1-0.1,0.1-0.1,0.2-0.2c0.1-0.1,0.3-0.2,0.4-0.3c0.1-0.1,0.1-0.2,0.2-0.3
			c0.1-0.1,0.2-0.1,0.3-0.2c0.2-0.2,0.3-0.5,0.5-0.9c0.2-0.2,0.5-0.6,0.5-0.8c0-0.1-0.1-0.2-0.2-0.3c-0.1-0.1-0.2-0.3-0.3-0.5
			c-0.1-0.1-0.2-0.3-0.3-0.4c-0.1-0.1-0.2-0.3-0.3-0.4c-0.1-0.1-0.3-0.4-0.3-0.5c0-0.2,0.2-0.2,0.3-0.4c0-0.1,0.1-0.2,0.2-0.2
			c0.1-0.1,0.2-0.1,0.3-0.2c0.1-0.1,0.1-0.1,0.2-0.2c0.1-0.1,0.2-0.1,0.3-0.2c0.1-0.1,0.1-0.1,0.2-0.2c0-0.1,0.1-0.1,0.2-0.1
			c0.1-0.1,0.1-0.1,0.2-0.2c0.1-0.1,0.2-0.1,0.3-0.1c0.1,0,0.1-0.1,0.2-0.2c0.1-0.1,0.3-0.2,0.4-0.3c0.1-0.1,0.1-0.3,0.1-0.4
			c0-0.2,0-0.3,0-0.4c0-0.1,0-0.2-0.1-0.2c0-0.3,0-0.5-0.1-0.8c-0.1-0.3-0.2-0.7-0.2-1c-0.1-0.2-0.1-0.4-0.2-0.6
			c-0.2-0.5-0.4-1-0.6-1.5c-0.1-0.3-0.3-0.5-0.4-0.7c-0.1-0.2-0.3-0.5-0.4-0.7c-0.1-0.1-0.2-0.2-0.3-0.3c-0.1-0.1-0.2-0.2-0.3-0.3
			c-0.1-0.1-0.1-0.1-0.2-0.2c-0.1-0.1-0.1-0.1-0.2-0.2c-0.1-0.1-0.2-0.1-0.3-0.2c-0.1-0.1-0.1-0.2-0.2-0.2c-0.1-0.1-0.2-0.1-0.3-0.2
			c-0.6-0.4-1.2-0.8-1.8-1.1c-0.1-0.1-0.3-0.1-0.4-0.1c-0.1-0.1-0.2-0.1-0.3-0.2c-0.2-0.1-0.4-0.1-0.5-0.2c-0.1,0-0.2-0.1-0.3-0.1
			c-0.3-0.1-0.5-0.2-0.8-0.2c-0.2,0-0.4,0-0.5-0.1c-0.2,0-0.4-0.1-0.6-0.1c-0.2,0-0.4,0-0.6-0.1c-0.3,0-0.6,0-0.9,0
			c-0.1,0-0.2,0-0.3,0c-0.1,0-0.2,0-0.3,0.1c-0.2,0-0.4,0-0.5,0.1c-0.1,0-0.2,0.1-0.3,0.1c-0.1,0-0.3,0-0.4,0.1
			c-0.2,0.1-0.4,0.2-0.7,0.2c-0.2,0.1-0.4,0.1-0.6,0.2c-0.2,0.1-0.4,0.2-0.6,0.3c-0.1,0-0.2,0-0.2,0.1c-0.1,0-0.1,0.1-0.2,0.1
			c-0.1,0-0.2,0.1-0.3,0.1c-0.1,0.1-0.2,0.1-0.3,0.2c-0.1,0.1-0.2,0.2-0.3,0.2c-0.1,0-0.2,0.1-0.2,0.1c-0.1,0-0.1,0.1-0.2,0.2
			c-0.1,0.1-0.3,0.2-0.4,0.3c-0.1,0.1-0.1,0.1-0.2,0.2c-0.1,0.1-0.2,0.1-0.3,0.2c-0.1,0.1-0.1,0.2-0.2,0.2c-0.1,0.1-0.3,0.2-0.4,0.3
			c-0.1,0.1-0.1,0.2-0.2,0.3c-0.1,0.1-0.2,0.1-0.3,0.2c-0.2,0.2-0.3,0.5-0.4,0.7C122.3,57.5,122.1,57.8,122,58z"/>
		<path fill-rule="evenodd" clip-rule="evenodd" fill="#36E3FF" d="M174.8,62.2c0-0.1-0.1-0.1-0.1-0.2c0-0.1,0-0.2,0-0.3
			c0-0.1-0.1-0.2-0.1-0.3c0-0.1,0-0.1,0-0.2c0-0.1-0.1-0.1-0.1-0.2c-0.1-0.1-0.1-0.3-0.1-0.4c0-0.1-0.1-0.1-0.1-0.1
			c0-0.1,0-0.1-0.1-0.2c0-0.1-0.1-0.1-0.1-0.1c0-0.1-0.1-0.2-0.1-0.3c0,0-0.1-0.1-0.1-0.1c0,0,0-0.1-0.1-0.1c0-0.1-0.1-0.1-0.1-0.2
			c-0.1-0.1-0.2-0.3-0.3-0.4c-0.1-0.1-0.1-0.1-0.1-0.2c-0.1-0.1-0.1-0.1-0.2-0.2c-0.1-0.1-0.1-0.1-0.1-0.2c-0.1-0.1-0.2-0.2-0.3-0.2
			c0,0-0.1-0.1-0.1-0.1c0,0-0.1-0.1-0.1-0.1c0,0-0.1-0.1-0.1-0.1c0,0-0.1-0.1-0.1-0.1c-0.1-0.1-0.2-0.1-0.3-0.2
			c-0.1-0.1-0.2-0.1-0.3-0.2c0,0-0.1-0.1-0.1-0.1c-0.1,0-0.2-0.1-0.3-0.1c0,0-0.1-0.1-0.1-0.1c-0.2-0.1-0.5-0.2-0.7-0.3
			c-0.2-0.1-0.4-0.1-0.6-0.2c-0.2,0-0.3-0.1-0.5-0.1c-0.1,0-0.1,0-0.2,0c-0.1,0-0.1,0-0.2,0c-0.1,0-0.1,0-0.2,0c-0.1,0-0.2,0-0.2,0
			c-0.1,0-0.2,0-0.2,0c-0.2,0-0.5,0-0.7,0.1c-0.2,0-0.5,0-0.7,0.1c-0.1,0-0.1,0.1-0.2,0.1c-0.1,0-0.1,0-0.2,0
			c-0.1,0-0.1,0.1-0.2,0.1c-0.1,0-0.1,0-0.2,0c-0.1,0-0.2,0.1-0.3,0.1c-0.1,0-0.2,0.1-0.3,0.1c-0.1,0-0.2,0.1-0.3,0.2
			c-0.1,0-0.2,0.1-0.3,0.1c-0.2,0.1-0.4,0.2-0.5,0.3c0,0-0.1,0.1-0.1,0.1c0,0,0,0-0.1,0c-0.2,0.2-0.4,0.4-0.6,0.5
			c0,0.1-0.1,0.1-0.1,0.2c-0.1,0-0.1,0.1-0.2,0.1c-0.1,0.1-0.2,0.2-0.2,0.3c0,0-0.1,0-0.1,0.1c0,0,0,0.1-0.1,0.1c0,0-0.1,0-0.1,0.1
			c0,0-0.1,0.1-0.1,0.2c0,0.1-0.1,0.1-0.1,0.2c-0.1,0.1-0.1,0.2-0.2,0.3c0,0.1-0.1,0.2-0.1,0.3c-0.1,0.1-0.1,0.2-0.2,0.2
			c0,0.1,0,0.1-0.1,0.2c0,0.1-0.2,0.2-0.2,0.3c0,0.1,0,0.2-0.1,0.3c0,0.1-0.1,0.1-0.1,0.2c0,0.1,0,0.1,0,0.2c0,0.1-0.1,0.1-0.1,0.2
			c0,0.1,0,0.1,0,0.2c0,0.1,0,0.1,0,0.2c0,0.1-0.1,0.2-0.1,0.2c0,0.1,0,0.1,0,0.2c0,0.1-0.1,0.2-0.1,0.4c0,0.1,0,0.2,0,0.3
			c0,0.1,0,0.2,0,0.2c0,0.2,0,0.4,0.1,0.7c0,0.2,0,0.6,0.1,0.7c0,0,0.2,0,0.2,0.1c0.1,0,0.2,0.1,0.3,0.1c0.1,0,0.2,0.1,0.4,0.1
			c0.1,0,0.2,0.1,0.4,0.1c0.1,0,0.3,0.1,0.3,0.1c0.1,0.1,0,0.2,0,0.3c0,0.1,0,0.1,0,0.2c0,0.1-0.1,0.1-0.1,0.2c0,0.1,0,0.1,0,0.2
			c0,0.1-0.1,0.2-0.1,0.2c0,0.1,0,0.1,0,0.2c0,0,0,0.1,0,0.1c0,0.1,0,0.1,0,0.2c0,0.1-0.1,0.1-0.1,0.2c0,0,0,0.1,0,0.2
			c0,0.1-0.1,0.2-0.1,0.3c0,0.1,0.1,0.2,0.1,0.3c0.1,0.1,0.1,0.2,0.2,0.2c0,0,0.1,0.1,0.1,0.1c0.1,0.1,0.2,0.3,0.4,0.4
			c0.2,0.2,0.4,0.3,0.5,0.5c0.1,0,0.2,0.2,0.4,0.2c0.3,0.2,0.6,0.4,1,0.5c0.2,0.1,0.4,0.1,0.5,0.2c0.2,0.1,0.4,0.2,0.5,0.2
			c0.1,0,0.2,0,0.3,0c0.1,0,0.2,0,0.3,0.1c0.1,0,0.1,0,0.2,0c0.1,0,0.1,0,0.2,0c0.1,0,0.1,0,0.2,0c0.1,0,0.1,0,0.2,0
			c0.1,0,0.2,0,0.2,0c0.5,0,1,0,1.5-0.1c0.1,0,0.2-0.1,0.3-0.1c0.1,0,0.2,0,0.3,0c0.1,0,0.2-0.1,0.4-0.1c0.1,0,0.1,0,0.2-0.1
			c0.2-0.1,0.4-0.1,0.6-0.2c0.1,0,0.2-0.1,0.3-0.2c0.1-0.1,0.3-0.1,0.4-0.2c0.1-0.1,0.2-0.1,0.4-0.2c0.2-0.1,0.3-0.3,0.5-0.4
			c0.1,0,0.1-0.1,0.2-0.1c0,0,0.1-0.1,0.1-0.1c0.1-0.1,0.2-0.2,0.3-0.3c0,0,0.1-0.1,0.1-0.2c0.1-0.1,0.2-0.1,0.2-0.2
			c0.1-0.2,0.2-0.3,0.3-0.4c0-0.1,0.2-0.2,0.2-0.4c0.1-0.1,0.1-0.3,0.2-0.4c0,0,0.1-0.1,0.1-0.1c0-0.1,0-0.1,0.1-0.2
			c0-0.1,0.1-0.1,0.1-0.2c0-0.1,0.1-0.2,0.1-0.2c0-0.1,0-0.2,0.1-0.3c0-0.1,0.1-0.1,0.1-0.2c0-0.1,0-0.1,0.1-0.2
			c0-0.1,0.1-0.2,0.1-0.4c0-0.1,0-0.1,0-0.2c0-0.1,0.1-0.1,0.1-0.2c0-0.1,0-0.1,0-0.2c0-0.1,0.1-0.2,0.1-0.3c0-0.1,0-0.2,0-0.3
			c0-0.1,0-0.1,0-0.2c0-0.2,0-0.4,0-0.6C174.8,62.6,174.8,62.4,174.8,62.2z"/>
		<polygon fill-rule="evenodd" clip-rule="evenodd" fill="#EF3C9E" points="233.9,201.8 247.5,207.7 260,187.5 237.7,170.9 		"/>
		<path fill-rule="evenodd" clip-rule="evenodd" fill="#EF3C9E" d="M151.8,20.3c-0.1,0-0.2,0-0.3,0c-0.1,0-0.3-0.1-0.4-0.1
			c-0.1,0-0.3,0-0.5,0c-0.1,0-0.2,0-0.3,0c-0.1,0-0.2,0-0.3,0c-0.2,0-0.4,0-0.6,0c-0.1,0-0.1,0-0.2,0c-0.1,0-0.2,0-0.2,0
			c-0.1,0-0.1,0-0.2,0.1c-0.1,0-0.3,0-0.4,0c-0.1,0-0.1,0-0.2,0.1c-0.1,0-0.1,0-0.2,0c-0.1,0-0.2,0.1-0.3,0.1
			c-0.2,0-0.4,0.1-0.6,0.2c-0.1,0-0.2,0-0.3,0.1c-0.1,0-0.2,0.1-0.3,0.1c-0.1,0-0.2,0.1-0.3,0.1c-0.1,0.1-0.3,0.2-0.4,0.2
			c-0.1,0-0.1,0-0.2,0c-0.1,0-0.1,0.1-0.2,0.1c-0.1,0-0.1,0.1-0.2,0.1c-0.1,0-0.1,0-0.2,0.1c-0.1,0.1-0.2,0.2-0.4,0.2
			c-0.1,0.1-0.2,0.2-0.4,0.2c-0.1,0-0.1,0.1-0.2,0.1c-0.1,0.1-0.2,0.2-0.3,0.3c-0.1,0-0.1,0.1-0.1,0.1c-0.2,0.2-0.4,0.5-0.6,0.7
			c-0.2,0.2-0.3,0.4-0.5,0.6c-0.1,0.2-0.2,0.4-0.3,0.5c0,0.1-0.1,0.1-0.1,0.2c0,0.1,0,0.2-0.1,0.2c0,0.1-0.1,0.1-0.2,0.2
			c0,0.1,0,0.2-0.1,0.3c0,0.1-0.1,0.2-0.2,0.2c-0.1,0.3-0.2,0.6-0.3,0.8c-0.1,0.3-0.2,0.6-0.3,0.8c0,0.1,0,0.2,0,0.3
			c0,0.1-0.1,0.2-0.1,0.3c0,0.1,0,0.2,0,0.3c0,0.1-0.1,0.1-0.1,0.2c0,0.1,0,0.3,0,0.4c0,0.2,0,0.3,0,0.4c0,0.1,0,0.3,0,0.4
			c0,0.2,0,0.3,0,0.4c0,0.3,0.1,0.5,0.1,0.8c0,0.1,0,0.1,0.1,0.2c0,0,0,0,0,0.1c0.1,0.3,0.2,0.7,0.3,1c0.1,0.1,0.1,0.2,0.1,0.3
			c0,0.1,0,0.2,0,0.2c0.1,0.1,0.2,0.3,0.2,0.4c0,0.1,0,0.1,0,0.2c0,0.1,0.1,0.1,0.1,0.2c0,0,0,0.1,0,0.1c0,0.1,0.1,0.2,0.1,0.2
			c0,0.1,0.1,0.2,0.2,0.2c0.1,0.1,0.1,0.3,0.2,0.4c0.1,0.1,0.2,0.2,0.2,0.3c0.1,0.1,0.1,0.2,0.2,0.3c0.1,0.1,0.1,0.1,0.2,0.2
			c0.1,0.1,0.2,0.3,0.3,0.4c0.1,0.1,0.2,0.1,0.3,0.2c0.1,0.1,0.1,0.1,0.2,0.2c0.1,0,0.1,0.1,0.2,0.1c0.1,0,0.1,0.1,0.1,0.2
			c0.1,0.1,0.2,0.1,0.2,0.1c0.1,0.1,0.2,0.1,0.2,0.1c0.1,0.1,0.2,0.2,0.2,0.2c0.1,0,0.1,0.1,0.2,0.1c0.1,0.1,0.2,0.2,0.4,0.3
			c0.1,0,0.2,0.1,0.3,0.1c0.1,0,0.2,0.1,0.2,0.2c0.2,0.1,0.5,0.2,0.8,0.3c0.2,0.1,0.7,0.3,0.8,0.2c0.1,0,0.1-0.2,0.2-0.2
			c0.1-0.1,0.2-0.2,0.3-0.3c0.1-0.1,0.2-0.2,0.3-0.4c0.1-0.1,0.2-0.2,0.3-0.4c0.1-0.1,0.2-0.3,0.3-0.3c0.1,0,0.3,0.1,0.4,0.2
			c0.1,0,0.2,0.1,0.2,0.1c0.1,0,0.1,0.1,0.2,0.2c0.1,0,0.1,0.1,0.2,0.1c0.1,0.1,0.2,0.2,0.2,0.2c0.1,0,0.1,0.1,0.2,0.1
			c0.1,0,0.1,0.1,0.2,0.1c0.1,0,0.1,0.1,0.2,0.1c0.1,0.1,0.1,0.1,0.2,0.2c0,0,0.1,0.1,0.2,0.1c0.1,0.1,0.2,0.2,0.3,0.2
			c0.1,0,0.3,0,0.4,0c0.1,0,0.3-0.1,0.3-0.1c0.1,0,0.1-0.1,0.2-0.1c0.2-0.1,0.4-0.2,0.6-0.3c0.3-0.1,0.5-0.3,0.8-0.4
			c0.1-0.2,0.3-0.2,0.4-0.3c0.4-0.3,0.7-0.5,1.1-0.9c0.2-0.1,0.3-0.3,0.5-0.5c0.2-0.2,0.4-0.3,0.5-0.5c0.1-0.1,0.1-0.2,0.2-0.3
			c0.1-0.1,0.1-0.2,0.2-0.3c0-0.1,0.1-0.1,0.1-0.2c0-0.1,0.1-0.1,0.1-0.2c0-0.1,0.1-0.2,0.1-0.3c0-0.1,0.1-0.1,0.1-0.2
			c0-0.1,0.1-0.2,0.1-0.3c0.2-0.6,0.4-1.2,0.5-1.8c0-0.1,0-0.3,0-0.4c0-0.1,0.1-0.2,0.1-0.3c0-0.2,0-0.3,0-0.5c0-0.1,0-0.2,0-0.3
			c0-0.3,0-0.5,0-0.8c0-0.2-0.1-0.3-0.1-0.5c0-0.2,0-0.4-0.1-0.5c0-0.2-0.1-0.3-0.1-0.5c0-0.3-0.1-0.5-0.2-0.8c0-0.1,0-0.2-0.1-0.3
			c0-0.1-0.1-0.1-0.1-0.2c-0.1-0.2-0.1-0.3-0.2-0.4c0-0.1-0.1-0.1-0.1-0.2c-0.1-0.1-0.1-0.3-0.1-0.4c-0.2-0.1-0.3-0.3-0.3-0.5
			c-0.1-0.1-0.2-0.3-0.3-0.4c-0.1-0.2-0.3-0.3-0.4-0.5c0-0.1-0.1-0.1-0.1-0.2c-0.1-0.1-0.1-0.1-0.2-0.2c-0.1-0.1-0.1-0.1-0.1-0.2
			c-0.1-0.1-0.2-0.1-0.2-0.2c-0.1-0.1-0.2-0.1-0.3-0.2c-0.1-0.1-0.1-0.1-0.1-0.2c-0.1-0.1-0.1-0.1-0.2-0.1c-0.1-0.1-0.2-0.2-0.4-0.3
			c-0.1,0-0.1-0.1-0.2-0.1c-0.1-0.1-0.1-0.2-0.2-0.2c-0.1,0-0.2-0.1-0.2-0.1c-0.1-0.1-0.2-0.2-0.3-0.2c-0.1-0.1-0.2-0.1-0.3-0.1
			c-0.1,0-0.2-0.1-0.2-0.2c-0.2-0.1-0.4-0.1-0.7-0.2C152.2,20.5,152,20.3,151.8,20.3z"/>
	</g>
	<text transform="matrix(0.9988 -4.872000e-02 4.872000e-02 0.9988 56.4432 96.6644)"><tspan x="0" y="0" fill="#231F20" font-family="'EamesCenturyModern-BoldItalic'" font-size="97.0666px" letter-spacing="-1">B  </tspan><tspan x="103.1" y="0" fill="#231F20" font-family="'EamesCenturyModern-BoldItalic'" font-size="97.0666px" letter-spacing="-7"> </tspan><tspan x="114.7" y="0" fill="#231F20" font-family="'EamesCenturyModern-BoldItalic'" font-size="97.0666px" letter-spacing="-1">dbot</tspan></text>
	<polygon fill-rule="evenodd" clip-rule="evenodd" fill="#EF3C9E" points="38.7,165.2 24.7,187.4 43.4,205.4 61,212.5 86.5,178.5 
		69.7,162.7 	"/>
</g>
</svg>
